<svg width="19" height="19" viewBox="0 0 19 19" fill="none" xmlns="http://www.w3.org/2000/svg">
<path fill-rule="evenodd" clip-rule="evenodd" d="M9.49998 -0.000171C14.7466 -0.000171 19 4.2529 19 9.49987C19 14.7464 14.7466 18.9999 9.49998 18.9999C4.25321 18.9999 -9.5e-05 14.7464 -9.5e-05 9.49987C-9.5e-05 4.2529 4.25321 -0.000171 9.49998 -0.000171Z" fill="#494949"/>
<path fill-rule="evenodd" clip-rule="evenodd" d="M9.49998 -0.000171C14.7466 -0.000171 19 4.2529 19 9.49987C19 14.7464 14.7466 18.9999 9.49998 18.9999C4.25321 18.9999 -9.5e-05 14.7464 -9.5e-05 9.49987C-9.5e-05 4.2529 4.25321 -0.000171 9.49998 -0.000171Z" fill="#ABABAB"/>
</svg>
