<svg width="172" height="19" viewBox="0 0 172 19" fill="none" xmlns="http://www.w3.org/2000/svg">
<g clip-path="url(#clip0_18_40)">
<path fill-rule="evenodd" clip-rule="evenodd" d="M86.4999 -0.000171C91.7467 -0.000171 96 4.2529 96 9.49987C96 14.7464 91.7467 18.9999 86.4999 18.9999C81.2532 18.9999 76.9999 14.7464 76.9999 9.49987C76.9999 4.2529 81.2532 -0.000171 86.4999 -0.000171Z" fill="#494949"/>
<path fill-rule="evenodd" clip-rule="evenodd" d="M122.5 -0.000171C127.747 -0.000171 132 4.2529 132 9.49987C132 14.7464 127.747 18.9999 122.5 18.9999C117.253 18.9999 113 14.7464 113 9.49987C113 4.2529 117.253 -0.000171 122.5 -0.000171Z" fill="#494949"/>
<path fill-rule="evenodd" clip-rule="evenodd" d="M122.5 -0.000171C127.747 -0.000171 132 4.2529 132 9.49987C132 14.7464 127.747 18.9999 122.5 18.9999C117.253 18.9999 113 14.7464 113 9.49987C113 4.2529 117.253 -0.000171 122.5 -0.000171Z" fill="#ABABAB"/>
<path fill-rule="evenodd" clip-rule="evenodd" d="M50.5 -0.000171C55.7466 -0.000171 60 4.2529 60 9.49987C60 14.7464 55.7466 18.9999 50.5 18.9999C45.2532 18.9999 40.9999 14.7464 40.9999 9.49987C40.9999 4.2529 45.2532 -0.000171 50.5 -0.000171Z" fill="#494949"/>
<path fill-rule="evenodd" clip-rule="evenodd" d="M50.5 -0.000171C55.7466 -0.000171 60 4.2529 60 9.49987C60 14.7464 55.7466 18.9999 50.5 18.9999C45.2532 18.9999 40.9999 14.7464 40.9999 9.49987C40.9999 4.2529 45.2532 -0.000171 50.5 -0.000171Z" fill="#ABABAB"/>
<rect x="140" y="8" width="33" height="4" fill="#ABABAB"/>
<rect y="8" width="33" height="4" fill="#ABABAB"/>
</g>
<defs>
<clipPath id="clip0_18_40">
<rect width="172" height="19" fill="white"/>
</clipPath>
</defs>
</svg>
